<?xml version="1.0" encoding="utf-8"?>
<!-- Generator: Adobe Illustrator 26.1.0, SVG Export Plug-In . SVG Version: 6.00 Build 0)  -->
<svg version="1.1" xmlns="http://www.w3.org/2000/svg" xmlns:xlink="http://www.w3.org/1999/xlink" x="0px" y="0px"
	 viewBox="0 0 1000 1000" style="enable-background:new 0 0 1000 1000;" xml:space="preserve">
<style type="text/css">
	.st0{fill:#FFFFFF;}
</style>
<g id="Layer_1">
	<g>
		<g>
			<path class="st0" d="M563.22,101.87l318.2,318.2l-308.3,308.3c-13.92,13.92-23.5,15.53-29.49,15.53
				c-14.32,0-32.52-9.78-53.58-21.11c-31.53-16.95-70.76-38.04-120.95-38.04c-33.05,0-66.21,8.96-100.79,27.32L110.67,554.41
				L563.22,101.87 M563.22,59.44L68.24,554.41L263.4,749.58c40.79-25.64,75.44-34.83,105.7-34.83c76.77,0,125.32,59.15,174.53,59.15
				c16.46,0,33.01-6.63,50.7-24.32l329.51-329.51L563.22,59.44L563.22,59.44z"/>
		</g>
		<g>
			<path class="st0" d="M439.47,779.12c-3.84,0-7.68,1.46-10.61,4.39c-5.86,5.86-5.86,15.36,0,21.21c2.93,2.93,6.77,4.39,10.61,4.39
				c3.84,0,7.68-1.46,10.61-4.39c5.86-5.86,5.86-15.36,0-21.21C447.15,780.59,443.31,779.12,439.47,779.12L439.47,779.12z"/>
		</g>
		<g>
			<path class="st0" d="M404.12,735.28c-3.84,0-7.68,1.46-10.61,4.39c-5.86,5.86-5.86,15.36,0,21.21c2.93,2.93,6.77,4.39,10.61,4.39
				s7.68-1.46,10.61-4.39c5.86-5.86,5.86-15.36,0-21.21C411.8,736.75,407.96,735.28,404.12,735.28L404.12,735.28z"/>
		</g>
		<g>
			<path class="st0" d="M481.19,843.47c-3.84,0-7.68,1.46-10.61,4.39c-5.86,5.86-5.86,15.36,0,21.21c2.93,2.93,6.77,4.39,10.61,4.39
				s7.68-1.46,10.61-4.39c5.86-5.86,5.86-15.36,0-21.21C488.87,844.93,485.03,843.47,481.19,843.47L481.19,843.47z"/>
		</g>
		<g>
			<path class="st0" d="M348.96,757.91c-3.84,0-7.68,1.46-10.61,4.39c-5.86,5.86-5.86,15.36,0,21.21c2.93,2.93,6.77,4.39,10.61,4.39
				c3.84,0,7.68-1.46,10.61-4.39c5.86-5.86,5.86-15.36,0-21.21C356.64,759.37,352.8,757.91,348.96,757.91L348.96,757.91z"/>
		</g>
		<g>
			<path class="st0" d="M300.17,785.49c-3.84,0-7.68,1.46-10.61,4.39c-5.86,5.86-5.86,15.36,0,21.21c2.93,2.93,6.77,4.39,10.61,4.39
				s7.68-1.46,10.61-4.39c5.86-5.86,5.86-15.36,0-21.21C307.85,786.95,304.01,785.49,300.17,785.49L300.17,785.49z"/>
		</g>
		<g>
			<path class="st0" d="M389.98,798.92c-3.84,0-7.68,1.46-10.61,4.39c-5.86,5.86-5.86,15.36,0,21.21c2.93,2.93,6.77,4.39,10.61,4.39
				s7.68-1.46,10.61-4.39c5.86-5.86,5.86-15.36,0-21.21C397.65,800.39,393.82,798.92,389.98,798.92L389.98,798.92z"/>
		</g>
		<g>
			<path class="st0" d="M369.47,876c-3.84,0-7.68,1.46-10.61,4.39c-5.86,5.86-5.86,15.36,0,21.21c2.93,2.93,6.77,4.39,10.61,4.39
				s7.68-1.46,10.61-4.39c5.86-5.86,5.86-15.36,0-21.21C377.15,877.46,373.31,876,369.47,876L369.47,876z"/>
		</g>
		<g>
			<path class="st0" d="M462.1,899.33c-3.84,0-7.68,1.46-10.61,4.39c-5.86,5.86-5.86,15.36,0,21.21c2.93,2.93,6.77,4.39,10.61,4.39
				s7.68-1.46,10.61-4.39c5.86-5.86,5.86-15.36,0-21.21C469.78,900.8,465.94,899.33,462.1,899.33L462.1,899.33z"/>
		</g>
		<g>
			<path class="st0" d="M421.09,856.91c-3.84,0-7.68,1.46-10.61,4.39c-5.86,5.86-5.86,15.36,0,21.21c2.93,2.93,6.77,4.39,10.61,4.39
				c3.84,0,7.68-1.46,10.61-4.39c5.86-5.86,5.86-15.36,0-21.21C428.77,858.37,424.93,856.91,421.09,856.91L421.09,856.91z"/>
		</g>
		<g>
			<path class="st0" d="M409.07,931.15c-3.84,0-7.68,1.46-10.61,4.39c-5.86,5.86-5.86,15.36,0,21.21c2.93,2.93,6.77,4.39,10.61,4.39
				s7.68-1.46,10.61-4.39c5.86-5.86,5.86-15.36,0-21.21C416.75,932.62,412.91,931.15,409.07,931.15L409.07,931.15z"/>
		</g>
		<g>
			<path class="st0" d="M295.93,856.2c-3.84,0-7.68,1.46-10.61,4.39c-5.86,5.86-5.86,15.36,0,21.21c2.93,2.93,6.77,4.39,10.61,4.39
				c3.84,0,7.68-1.46,10.61-4.39c5.86-5.86,5.86-15.36,0-21.21C303.61,857.66,299.77,856.2,295.93,856.2L295.93,856.2z"/>
		</g>
		<g>
			<path class="st0" d="M339.77,827.91c-3.84,0-7.68,1.46-10.61,4.39c-5.86,5.86-5.86,15.36,0,21.21c2.93,2.93,6.77,4.39,10.61,4.39
				s7.68-1.46,10.61-4.39c5.86-5.86,5.86-15.36,0-21.21C347.45,829.38,343.61,827.91,339.77,827.91L339.77,827.91z"/>
		</g>
		<g>
			<path class="st0" d="M329.17,910.65c-3.84,0-7.68,1.46-10.61,4.39c-5.86,5.86-5.86,15.36,0,21.21c2.93,2.93,6.77,4.39,10.61,4.39
				s7.68-1.46,10.61-4.39c5.86-5.86,5.86-15.36,0-21.21C336.84,912.11,333,910.65,329.17,910.65L329.17,910.65z"/>
		</g>
		<g>
			<polygon class="st0" points="155.22,471.68 134,492.9 348.26,707.15 369.47,685.94 155.22,471.68 			"/>
		</g>
		<g>
			<polygon class="st0" points="505.94,129.44 484.73,150.66 823.43,489.36 844.65,468.15 505.94,129.44 			"/>
		</g>
	</g>
</g>
<g id="Layer_2">
</g>
</svg>
