<?xml version="1.0" encoding="utf-8"?>
<!-- Generator: Adobe Illustrator 26.1.0, SVG Export Plug-In . SVG Version: 6.00 Build 0)  -->
<svg version="1.1" id="Layer_1" xmlns="http://www.w3.org/2000/svg" xmlns:xlink="http://www.w3.org/1999/xlink" x="0px" y="0px"
	 viewBox="0 0 1000 1000" style="enable-background:new 0 0 1000 1000;" xml:space="preserve">
<style type="text/css">
	.st0{fill:#FFFFFF;}
	.st1{fill:#FFFFFF;stroke:#FFFFFF;stroke-width:30;stroke-miterlimit:10;}
</style>
<g>
	<g>
		<path class="st0" d="M722.74,122.26c41.4,0,80.32,16.12,109.6,45.4c29.28,29.28,45.4,68.2,45.4,109.6
			c0,41.4-16.12,80.33-45.4,109.6L386.87,832.34c-29.28,29.28-68.2,45.4-109.6,45.4c-41.4,0-80.32-16.12-109.6-45.4
			c-29.28-29.28-45.4-68.2-45.4-109.6c0-41.4,16.12-80.33,45.4-109.6l445.47-445.48C642.41,138.38,681.33,122.26,722.74,122.26
			L722.74,122.26 M722.74,92.26c-47.35,0-94.69,18.06-130.82,54.19L146.45,591.93c-72.25,72.25-72.24,189.38,0,261.63l0,0
			c36.12,36.12,83.47,54.18,130.81,54.18s94.69-18.06,130.82-54.19l445.47-445.48c72.25-72.25,72.24-189.38,0-261.63l0,0
			C817.43,110.32,770.08,92.26,722.74,92.26L722.74,92.26z"/>
	</g>
	<path class="st1" d="M805.47,550.91"/>
	<g>
		<path class="st0" d="M277.26,892.74c-45.41,0-88.1-17.68-120.21-49.79c-32.11-32.11-49.79-74.8-49.79-120.21
			c-0.01-45.41,17.67-88.1,49.78-120.21l222.74-222.74l240.42,240.41L397.47,842.95C365.37,875.06,322.67,892.74,277.26,892.74z"/>
		<path class="st0" d="M379.79,401.01L599,620.21L386.87,832.34c-29.27,29.28-68.2,45.4-109.6,45.4c-41.4,0-80.33-16.12-109.6-45.4
			c-29.28-29.28-45.4-68.2-45.39-109.61c-0.01-41.4,16.11-80.32,45.39-109.6L379.79,401.01 M379.79,358.58L146.45,591.93
			c-36.12,36.12-54.18,83.47-54.18,130.82c-0.01,47.34,18.06,94.7,54.18,130.81c36.12,36.12,83.47,54.18,130.81,54.18
			s94.69-18.06,130.82-54.19l233.34-233.35L379.79,358.58L379.79,358.58z"/>
	</g>
</g>
</svg>
