<?xml version="1.0" encoding="utf-8"?>
<!-- Generator: Adobe Illustrator 26.1.0, SVG Export Plug-In . SVG Version: 6.00 Build 0)  -->
<svg version="1.1" xmlns="http://www.w3.org/2000/svg" xmlns:xlink="http://www.w3.org/1999/xlink" x="0px" y="0px"
	 viewBox="0 0 1000 1000" style="enable-background:new 0 0 1000 1000;" xml:space="preserve">
<style type="text/css">
	.st0{fill:#FFFFFF;}
	.st1{fill:none;stroke:#FFFFFF;stroke-width:4;stroke-miterlimit:10;stroke-dasharray:12;}
	.st2{fill:none;stroke:#FFFFFF;stroke-width:5;stroke-miterlimit:10;}
	.st3{fill:none;stroke:#FFFFFF;stroke-miterlimit:10;}
</style>
<g id="Layer_1">
	<g>
		<g>
			<path class="st0" d="M774.22,216.98c3.47,0,6.74,1.35,9.19,3.81l24.04,24.04c2.46,2.46,3.81,5.72,3.81,9.19
				c0,3.47-1.35,6.74-3.81,9.19l-45.26,45.26l-42.43-42.43l45.26-45.26C767.48,218.33,770.75,216.98,774.22,216.98 M774.22,196.98
				c-8.45,0-16.89,3.22-23.33,9.67l-59.4,59.4l70.71,70.71l59.4-59.4c12.89-12.89,12.89-33.78,0-46.67l-24.04-24.04
				C791.11,200.2,782.66,196.98,774.22,196.98L774.22,196.98z"/>
		</g>
		<g>
			<path class="st0" d="M685.99,259.75l-25.72,25.72c11.53,6.89,22.63,15.43,32.83,25.63l23.21,23.21
				c10.55,10.55,19.33,22.04,26.34,34l25.95-25.95L685.99,259.75L685.99,259.75z"/>
		</g>
		<g>
			<path class="st0" d="M590.78,284.46c15.21,0,31.47,3.75,47.01,10.85c15.44,7.06,29.69,17.05,42.34,29.69l23.21,23.21
				c11.7,11.7,21.15,24.82,28.1,38.99c18.9,38.51,16.12,78.39-7.08,101.59L325.71,887.44l-184.81-184.8l398.64-398.64
				C552.32,291.21,570.04,284.46,590.78,284.46L590.78,284.46 M590.77,264.46c-25.05,0-48.26,8.29-65.37,25.39L112.62,702.64
				l213.09,213.09L738.5,502.94c30.28-30.28,32.92-79.66,10.89-124.54c-7.67-15.66-18.36-30.77-31.91-44.32l-23.21-23.21
				c-14.66-14.66-31.14-25.97-48.17-33.74C627.76,268.74,608.79,264.46,590.77,264.46L590.77,264.46z"/>
		</g>
		<g>
			
				<rect x="315.54" y="430.92" transform="matrix(0.7071 -0.7071 0.7071 0.7071 -267.007 491.2976)" class="st0" width="288" height="274.07"/>
			<path class="st0" d="M464.47,369.94l193.09,193.09L454.62,765.97L261.53,572.88L464.47,369.94 M464.47,368.53L260.12,572.88
				l194.5,194.5l204.35-204.35L464.47,368.53L464.47,368.53z"/>
		</g>
		<g>
			<line class="st1" x1="811.07" y1="301.28" x2="944.77" y2="434.98"/>
			<line class="st1" x1="806.58" y1="304.97" x2="901.12" y2="468.72"/>
			<line class="st1" x1="814.76" y1="296.79" x2="978.51" y2="391.33"/>
		</g>
		<g>
			<circle class="st2" cx="782" cy="271.69" r="8.51"/>
			<circle class="st3" cx="782" cy="271.69" r="0.95"/>
		</g>
	</g>
</g>
<g id="Layer_2">
</g>
</svg>
