<svg id="Layer_1" data-name="Layer 1" xmlns="http://www.w3.org/2000/svg" viewBox="0 0 966.81 833.86"><defs><style>.cls-1{fill:#fff;}.cls-2,.cls-3,.cls-4,.cls-5{fill:none;stroke:#fff;stroke-miterlimit:10;}.cls-2{stroke-width:20px;}.cls-3{stroke-width:5px;}.cls-5{stroke-width:4px;stroke-dasharray:12;}</style></defs><path class="cls-1" d="M743.7,28.28l62,62-78.11,78.1L713.41,182.5l14.14,14.14,10.12,10.11-42,42-9.43,9.43,5.09,12.34c8.46,20.53,12,41.13,10.1,59.57-1.79,17.7-8.59,32.88-19.66,43.9L248.13,805.58,28.28,584.68,461.89,153.13c13.07-13,31.51-19.88,53.33-19.88,15.33,0,32.08,3.5,48.44,10.1l12.27,5,9.36-9.36,42.29-42.29,9.73,9.73,14.14,14.15,14.14-14.15L743.7,28.28M743.7,0,651.45,92.25,627.58,68.38l-56.43,56.43c-18.9-7.63-38-11.56-55.93-11.56-26.19,0-50,8.35-67.43,25.71L0,584.62,248.06,833.86,695.85,388.2c29.81-29.68,33.4-78.09,13.94-125.28L766,206.75,741.7,182.5,834,90.25,743.7,0Z"/><line class="cls-2" x1="614.54" y1="443.06" x2="391.94" y2="220.46"/><line class="cls-2" x1="657.99" y1="112.16" x2="722.17" y2="176.34"/><line class="cls-2" x1="408.65" y1="647.62" x2="186.04" y2="425.01"/><circle class="cls-3" cx="769.63" cy="106.82" r="8.51"/><circle class="cls-4" cx="769.63" cy="106.82" r="0.95"/><line class="cls-5" x1="798.38" y1="136.23" x2="932.07" y2="269.93"/><line class="cls-5" x1="793.89" y1="139.92" x2="888.43" y2="303.67"/><line class="cls-5" x1="802.07" y1="131.74" x2="965.81" y2="226.28"/></svg>