<?xml version="1.0" encoding="utf-8"?>
<!-- Generator: Adobe Illustrator 26.1.0, SVG Export Plug-In . SVG Version: 6.00 Build 0)  -->
<svg version="1.1" id="Layer_1" xmlns="http://www.w3.org/2000/svg" xmlns:xlink="http://www.w3.org/1999/xlink" x="0px" y="0px"
	 viewBox="0 0 1000 1000" style="enable-background:new 0 0 1000 1000;" xml:space="preserve">
<style type="text/css">
	.st0{fill:#FFFFFF;stroke:#FFFFFF;stroke-width:30;stroke-miterlimit:10;}
	.st1{fill:#FFFFFF;}
</style>
<g>
	<path class="st0" d="M203.58,458.4"/>
	<g>
		<g>
			<path class="st1" d="M731.79,131.54c41.39,0,80.31,16.12,109.59,45.39c29.28,29.27,45.4,68.2,45.4,109.6
				c0,41.4-16.12,80.33-45.39,109.6l-445.45,445.5c-29.28,29.28-68.2,45.4-109.61,45.4c-41.4,0-80.32-16.12-109.6-45.39
				c-29.28-29.27-45.4-68.2-45.4-109.6s16.12-80.33,45.39-109.6l445.45-445.5C651.45,147.67,690.37,131.54,731.79,131.54
				L731.79,131.54L731.79,131.54 M731.78,101.54c-47.35,0-94.7,18.07-130.82,54.19l-445.45,445.5
				c-72.24,72.25-72.24,189.39,0.01,261.63l0,0c36.13,36.12,83.46,54.18,130.81,54.18s94.7-18.07,130.82-54.19l445.45-445.5
				c72.24-72.25,72.24-189.39-0.01-261.63l0,0C826.46,119.6,779.13,101.54,731.78,101.54L731.78,101.54z"/>
		</g>
		<g>
			<path class="st1" d="M388.84,389.09l222.73-222.75c32.11-32.11,74.8-49.8,120.21-49.8c45.41,0,88.09,17.68,120.2,49.78
				c32.11,32.11,49.8,74.8,49.79,120.2c0.01,45.41-17.67,88.1-49.78,120.21L629.27,629.49L388.84,389.09z"/>
			<path class="st1" d="M731.79,131.54c41.39,0,80.31,16.12,109.59,45.39c29.28,29.28,45.4,68.2,45.4,109.6
				c0.01,41.4-16.11,80.32-45.39,109.6L629.27,608.28L410.05,389.09l212.12-212.14C651.45,147.67,690.37,131.54,731.79,131.54
				L731.79,131.54L731.79,131.54 M731.78,101.54c-47.35,0-94.7,18.07-130.82,54.19L367.63,389.09l261.64,261.62L862.6,417.35
				c36.12-36.12,54.18-83.48,54.17-130.82c0-47.34-18.06-94.69-54.19-130.81C826.46,119.6,779.13,101.54,731.78,101.54
				L731.78,101.54z"/>
		</g>
	</g>
</g>
</svg>
