<?xml version="1.0" encoding="utf-8"?>
<!-- Generator: Adobe Illustrator 26.1.0, SVG Export Plug-In . SVG Version: 6.00 Build 0)  -->
<svg version="1.1" xmlns="http://www.w3.org/2000/svg" xmlns:xlink="http://www.w3.org/1999/xlink" x="0px" y="0px"
	 viewBox="0 0 1000 1000" style="enable-background:new 0 0 1000 1000;" xml:space="preserve">
<style type="text/css">
	.st0{fill:#FFFFFF;}
</style>
<g id="Layer_1">
	<g>
		<g>
			<path class="st0" d="M296.15,679.95l28.77,27.79L208.92,827.87l-28.77-27.79L296.15,679.95 M295.66,651.67l-143.79,148.9
				l57.55,55.57l143.79-148.9L295.66,651.67L295.66,651.67z"/>
		</g>
		<g>
			<polygon class="st0" points="140.12,755.87 123.45,773.14 235.67,881.5 252.34,864.24 140.12,755.87 			"/>
		</g>
		<g>
			<polygon class="st0" points="247.1,604.78 230.43,622.05 384.37,770.7 401.04,753.44 247.1,604.78 			"/>
		</g>
		<path class="st0" d="M487.7,491.67L487.7,491.67c4.22-4.37,11.18-4.49,15.55-0.27l40.23,38.85l-15.28,15.83l-40.23-38.85
			C483.61,503.01,483.48,496.04,487.7,491.67z"/>
		<path class="st0" d="M439.08,542.03L439.08,542.03c4.22-4.37,11.18-4.49,15.55-0.27l40.37,38.99l-15.28,15.83l-40.37-38.99
			C434.98,553.36,434.86,546.4,439.08,542.03z"/>
		<path class="st0" d="M391.15,591.66L391.15,591.66c4.22-4.37,11.18-4.49,15.55-0.27l40.52,39.13l-15.28,15.83l-40.52-39.13
			C387.05,602.99,386.93,596.03,391.15,591.66z"/>
		<g>
			<path class="st0" d="M620.77,410.74c-3.09-4.69-6.71-9.04-10.83-13.02l-11.75-11.35c-4.63-4.47-9.69-8.28-15.15-11.42
				l38.43-39.79l37.41,36.12L620.77,410.74z"/>
			<path class="st0" d="M621.71,349.3l23.02,22.23l-23.11,23.93c-1.51-1.7-3.08-3.34-4.73-4.93l-11.75-11.35
				c-2.14-2.06-4.36-4-6.66-5.82L621.71,349.3 M621.22,321.02l-55.24,57.2c9.18,3.06,17.84,8.17,25.27,15.34L603,404.91
				c6.86,6.63,12,14.37,15.4,22.67l54.61-56.55L621.22,321.02L621.22,321.02z"/>
		</g>
		<g>
			<path class="st0" d="M560.74,354.02v20c5.06,0,10.05,0.81,14.83,2.39c6.65,2.21,12.6,5.83,17.69,10.75l11.75,11.35
				c4.71,4.55,8.34,9.89,10.79,15.88c7.06,17.2,3.28,36.96-9.64,50.34L360.83,718.78l-79.13-76.41l245.33-254.05
				c8.9-9.22,20.87-14.3,33.7-14.3L560.74,354.02 M560.73,354.02c-17.5,0-34.97,6.83-48.08,20.41L253.43,642.86l107.9,104.2
				l259.23-268.44c19.01-19.69,23.52-48.03,13.75-71.82c-3.4-8.3-8.54-16.05-15.4-22.67l-11.75-11.35
				c-7.42-7.17-16.08-12.28-25.27-15.34C575.02,355.16,567.88,354.02,560.73,354.02L560.73,354.02z"/>
		</g>
		<g>
			<path class="st0" d="M477.35,425.38l42.49-44c10.81-11.19,25.33-17.35,40.89-17.35c6.14,0,12.19,0.98,17.99,2.91
				c8.07,2.69,15.3,7.08,21.48,13.04l11.75,11.35c5.71,5.52,10.12,12,13.1,19.27c8.57,20.88,3.98,44.86-11.69,61.09l-42.49,44
				L477.35,425.38z"/>
			<path class="st0" d="M560.74,354.02v20c5.06,0,10.05,0.81,14.83,2.39c6.65,2.21,12.6,5.83,17.69,10.75l11.75,11.35
				c4.71,4.55,8.34,9.89,10.79,15.88c7.06,17.2,3.28,36.96-9.64,50.34l-35.55,36.81l-79.13-76.41l35.55-36.81
				c8.9-9.22,20.87-14.3,33.7-14.3L560.74,354.02 M560.73,354.02c-17.5,0-34.97,6.83-48.08,20.41l-49.44,51.2l107.9,104.2
				l49.44-51.2c19.01-19.69,23.52-48.03,13.75-71.82c-3.4-8.3-8.54-16.05-15.4-22.67l-11.75-11.35
				c-7.42-7.17-16.08-12.28-25.27-15.34C575.02,355.16,567.88,354.02,560.73,354.02L560.73,354.02z"/>
		</g>
		<g>
			<polygon class="st0" points="616.18,316.16 602.29,330.55 665.59,391.68 679.48,377.29 616.18,316.16 			"/>
		</g>
		<g>
			<path class="st0" d="M638.23,323.56l39.6-41c4.37-4.53,10.25-7.02,16.55-7.02c5.99,0,11.66,2.29,15.97,6.46
				c4.42,4.27,6.91,10,7.02,16.14s-2.18,11.96-6.45,16.38l-39.6,41L638.23,323.56z"/>
			<path class="st0" d="M694.38,285.53c3.38,0,6.59,1.3,9.03,3.65c2.5,2.41,3.91,5.65,3.97,9.12c0.06,3.47-1.23,6.76-3.65,9.26
				l-32.65,33.81l-18.7-18.06l32.65-33.81C687.5,286.94,690.82,285.53,694.38,285.53 M694.38,265.53c-8.64,0-17.27,3.37-23.74,10.08
				l-46.54,48.2l47.48,45.85l46.54-48.2c12.66-13.11,12.3-34-0.81-46.66v0C710.89,268.61,702.63,265.53,694.38,265.53L694.38,265.53
				z"/>
		</g>
		<g>
			<path class="st0" d="M711.56,269.94l141.74-146.77c0.94,1.38,2.41,1.64,3.39,1.64c2.06,0,4.63-1.09,7.36-2.25
				c2.84-1.2,6.05-2.57,8.54-2.57c0.61,0,1.14,0.08,1.62,0.24L720.91,278.97L711.56,269.94z"/>
			<path class="st0" d="M870.65,121.75l-149.78,155.1l-7.19-6.95l139.63-144.59c0.91,0.65,2.05,1,3.37,1c2.36,0,5.08-1.15,7.95-2.37
				C866.6,123.11,868.77,122.19,870.65,121.75 M872.58,118.5c-5.18,0-12.1,4.81-15.9,4.81c-1.53,0-2.55-0.78-2.76-2.95
				L709.44,269.98l11.51,11.11l155.6-161.13C875.45,118.91,874.09,118.5,872.58,118.5L872.58,118.5z"/>
		</g>
	</g>
</g>
<g id="Layer_2">
</g>
</svg>
