<?xml version="1.0" encoding="utf-8"?>
<!-- Generator: Adobe Illustrator 26.1.0, SVG Export Plug-In . SVG Version: 6.00 Build 0)  -->
<svg version="1.1" xmlns="http://www.w3.org/2000/svg" xmlns:xlink="http://www.w3.org/1999/xlink" x="0px" y="0px"
	 viewBox="0 0 1000 1000" style="enable-background:new 0 0 1000 1000;" xml:space="preserve">
<style type="text/css">
	.st0{fill:#FFFFFF;}
	.st1{fill:none;stroke:#FFFFFF;stroke-width:20;stroke-miterlimit:10;}
	.st2{fill:#FFFFFF;stroke:#FFFFFF;stroke-width:20;stroke-miterlimit:10;}
</style>
<g id="Layer_1">
	<g>
		<g>
			<path class="st0" d="M701.79,628.62l126.8,126.8c5.07,5.07,5.07,13.32,0,18.38l-15.29,15.29c-2.46,2.46-5.72,3.81-9.19,3.81
				c-3.47,0-6.74-1.35-9.19-3.81l-126.8-126.8L701.79,628.62 M701.79,600.34l-61.96,61.96l140.94,140.94
				c6.44,6.44,14.89,9.67,23.33,9.67c8.45,0,16.89-3.22,23.33-9.67l15.29-15.29c12.89-12.89,12.89-33.78,0-46.67L701.79,600.34
				L701.79,600.34z"/>
		</g>
		<g>
			<path class="st0" d="M690.28,568.18c-7.24,11.18-15.97,22.08-26.17,32.28l-23.21,23.21c-10.55,10.55-21.84,19.54-33.42,26.92
				l22.03,22.03l82.61-82.61L690.28,568.18L690.28,568.18z"/>
		</g>
		<g>
			<path class="st0" d="M345.54,121.24L681.7,457.4c17.72,17.72,17.34,51.96-0.98,87.24c-7.83,15.08-18.34,29.26-31.23,42.15
				L626.29,610c-11.93,11.93-25.01,21.84-38.88,29.47c-18.71,10.3-37.53,15.74-54.44,15.74c-10.52,0-25.31-2.26-36.07-13.01
				L160.73,306.05L345.54,121.24 M345.54,92.96L132.45,306.05l350.31,350.3c12.76,12.76,30.4,18.87,50.21,18.87
				c20.07,0,42.37-6.27,64.08-18.22c15.05-8.27,29.83-19.3,43.38-32.85l23.21-23.21c14.66-14.66,26.36-30.75,34.84-47.08
				c21.82-42.05,22.32-85.65-2.63-110.6L345.54,92.96L345.54,92.96z"/>
		</g>
		<g>
			<line class="st1" x1="621.18" y1="395.73" x2="435.21" y2="581.7"/>
		</g>
		<g>
			<line class="st1" x1="498.14" y1="272.69" x2="312.17" y2="458.66"/>
		</g>
		<path class="st2" d="M825.55,886.04c0,11.6,9.4,21,21,21c11.6,0,21-9.4,21-21c0-11.6-21-76.1-21-64.5
			C846.55,848.17,825.55,874.45,825.55,886.04z"/>
	</g>
</g>
<g id="Layer_2">
</g>
</svg>
