<?xml version="1.0" encoding="utf-8"?>
<!-- Generator: Adobe Illustrator 26.1.0, SVG Export Plug-In . SVG Version: 6.00 Build 0)  -->
<svg version="1.1" id="Layer_1" xmlns="http://www.w3.org/2000/svg" xmlns:xlink="http://www.w3.org/1999/xlink" x="0px" y="0px"
	 viewBox="0 0 1000 1000" style="enable-background:new 0 0 1000 1000;" xml:space="preserve">
<style type="text/css">
	.st0{fill:#FFFFFF;}
	.st1{fill:#FFFFFF;stroke:#FFFFFF;stroke-width:30;stroke-miterlimit:10;}
</style>
<g>
	<g>
		<g>
			<path class="st0" d="M1611.78,1855.54c41.22,0,79.99,15.98,109.22,45.01l8.87,9.56c0.7,0.82,1.42,1.69,2.21,2.65
				c0.8,0.98,1.61,1.99,2.39,3c0.51,0.66,1.04,1.35,1.56,2.04l16.18,26.96c0.19,0.4,0.38,0.82,0.58,1.26l0.3,0.67
				c0.04,0.08,0.08,0.17,0.11,0.25l0.49,1.09c0.34,0.77,0.67,1.54,0.98,2.29l0.84,2.05c0.4,0.96,0.79,1.97,1.21,3.09l1.44,3.94
				c0.35,1.02,0.69,2.02,1.03,3.06l2.32,7.84c0.24,0.91,0.47,1.82,0.69,2.7l2.81,14.04c0.14,0.89,0.27,1.82,0.39,2.75l0.69,6.12
				c0.46,4.78,0.7,9.7,0.7,14.64c0,7.22-0.51,14.5-1.52,21.69l-0.4,2.62c-0.08,0.51-0.15,1-0.23,1.47l-0.38,2.13
				c-0.04,0.2-0.07,0.4-0.11,0.6l-0.14,0.77c-0.14,0.72-0.28,1.46-0.44,2.25c-0.98,4.78-2.23,9.63-3.71,14.4l-0.01,0.04l-0.01,0.04
				c-0.33,1.08-0.71,2.25-1.15,3.56c-5.27,15.69-13.01,30.36-23.03,43.64c-1.19,1.58-2.39,3.11-3.59,4.58
				c-3.34,4.09-6.93,8.06-10.67,11.81l-192.5,192.52l-219.2-219.2l192.49-192.52C1531.45,1871.66,1570.37,1855.54,1611.78,1855.54
				 M1249.46,2153.69l219.2,219.2l-192.73,192.75c-29.27,29.28-68.2,45.4-109.6,45.4c-41.4,0-80.33-16.12-109.6-45.39
				c-2.8-2.8-5.55-5.76-8.13-8.76c-0.81-0.94-1.65-1.94-2.56-3.06c-1.18-1.44-2.37-2.96-3.65-4.64c-0.48-0.64-1.01-1.36-1.7-2.33
				l-0.19-0.26l-0.19-0.25c-0.18-0.25-0.36-0.49-0.53-0.74l-0.08-0.11l-0.08-0.11c-0.91-1.28-1.83-2.63-2.8-4.09
				c-1.05-1.59-2.08-3.22-3.07-4.84c-5.91-9.73-10.73-20.12-14.35-30.88c-0.34-1-0.66-2-0.98-3.01c-0.51-1.63-0.95-3.11-1.33-4.52
				l-0.02-0.09l-0.03-0.09c-0.41-1.47-0.81-2.96-1.16-4.39c-0.43-1.76-0.76-3.17-1.03-4.43l-0.01-0.04l-0.01-0.04
				c-0.29-1.33-0.49-2.32-0.66-3.21l-0.01-0.07l-0.01-0.07c-0.37-1.88-0.7-3.78-0.98-5.64l-0.02-0.12l-0.02-0.12
				c-0.14-0.86-0.28-1.82-0.44-3.04c-0.91-6.84-1.37-13.79-1.37-20.64c0-7.04,0.48-14.15,1.43-21.12l0.01-0.07l0.01-0.07
				c0.09-0.66,0.17-1.24,0.26-1.76l0.03-0.2l0.03-0.2c1.27-8.43,3.25-16.79,5.88-24.84c0.13-0.39,0.26-0.79,0.39-1.17l0.11-0.33
				l0.07-0.22l0.06-0.18l0.06-0.18l0.16-0.47c0.2-0.58,0.41-1.17,0.62-1.76c0.58-1.61,1.11-3.03,1.64-4.35
				c0.32-0.8,0.64-1.59,0.97-2.39l0.02-0.05l0.02-0.05c0.89-2.15,1.84-4.32,2.84-6.46c0.43-0.91,0.89-1.87,1.37-2.84
				c4.52-9.15,9.99-17.9,16.27-26.01c0.82-1.04,1.65-2.1,2.49-3.13c3.29-4.03,6.87-7.99,10.64-11.77L1249.46,2153.69
				 M1611.78,1825.54c-47.35,0-94.69,18.06-130.82,54.19l-212.12,212.15l-21.21,21.21l-212.12,212.14
				c-4.51,4.51-8.75,9.2-12.7,14.05c-0.98,1.21-1.95,2.43-2.91,3.66c-7.62,9.84-14.11,20.27-19.47,31.12
				c-0.55,1.11-1.08,2.22-1.61,3.34c-1.21,2.58-2.36,5.19-3.44,7.81c-0.4,0.96-0.79,1.92-1.17,2.88c-0.69,1.74-1.34,3.48-1.97,5.23
				c-0.31,0.86-0.61,1.73-0.91,2.59c-0.12,0.35-0.24,0.69-0.35,1.04c-0.16,0.47-0.32,0.95-0.48,1.43
				c-3.19,9.75-5.54,19.71-7.06,29.77c-0.15,0.91-0.28,1.81-0.4,2.72c-1.14,8.35-1.71,16.77-1.71,25.18
				c0,8.24,0.55,16.48,1.64,24.66c0.17,1.25,0.35,2.51,0.55,3.76c0.35,2.31,0.75,4.61,1.2,6.91c0.25,1.31,0.52,2.6,0.8,3.9
				c0.38,1.79,0.8,3.57,1.24,5.36c0.44,1.78,0.91,3.56,1.41,5.34c0.51,1.86,1.06,3.71,1.64,5.56c0.38,1.2,0.77,2.4,1.17,3.59
				c4.28,12.75,10,25.13,17.14,36.89c1.19,1.96,2.42,3.9,3.69,5.82c1.1,1.66,2.22,3.3,3.38,4.93c0.37,0.53,0.74,1.05,1.13,1.57
				c0.71,0.99,1.43,1.98,2.17,2.96c1.41,1.86,2.85,3.7,4.33,5.51c0.99,1.21,1.99,2.41,3.01,3.6c3.07,3.57,6.3,7.06,9.69,10.45
				c36.12,36.12,83.47,54.18,130.81,54.18c47.35,0,94.69-18.06,130.82-54.19l212.12-212.14l21.21-21.22l212.12-212.14
				c4.52-4.52,8.75-9.21,12.7-14.05c1.48-1.81,2.92-3.65,4.32-5.51c12.16-16.11,21.33-33.74,27.51-52.16
				c0.47-1.41,0.93-2.83,1.37-4.26c1.77-5.7,3.26-11.47,4.45-17.29c0.3-1.46,0.58-2.91,0.84-4.37c0.01-0.01,0.01-0.02,0.01-0.03
				c0.27-1.45,0.51-2.9,0.73-4.36c0.01-0.01,0.01-0.02,0.01-0.03c1.49-9.52,2.24-19.13,2.24-28.75c0-5.94-0.28-11.87-0.86-17.78
				l-0.75-6.62c-0.19-1.45-0.4-2.91-0.63-4.36l-3.06-15.32c-0.35-1.43-0.72-2.87-1.1-4.29l-2.55-8.61
				c-0.46-1.42-0.93-2.82-1.42-4.23l-1.55-4.24c-0.52-1.4-1.06-2.79-1.63-4.17l-0.87-2.11c-0.57-1.37-1.17-2.75-1.79-4.12
				c0,0,0-0.01-0.01-0.02c-0.61-1.36-1.24-2.73-1.89-4.08l-17.67-29.45c-0.91-1.25-1.85-2.48-2.8-3.71
				c-0.95-1.23-1.92-2.45-2.91-3.66c-0.99-1.21-1.99-2.41-3.01-3.6l-9.69-10.45C1706.47,1843.6,1659.12,1825.54,1611.78,1825.54
				L1611.78,1825.54z M1490.1,2351.9l-219.5-219.5l17.8-17.8l219.5,219.5L1490.1,2351.9L1490.1,2351.9z"/>
		</g>
		<g>
			<path class="st0" d="M1288.47,2093.46l203.1-203.12c32.11-32.11,74.8-49.79,120.21-49.79c45.32,0,87.92,17.61,120.01,49.59
				l9.29,10.02c0.88,1.03,1.75,2.07,2.61,3.12c0.87,1.08,1.79,2.23,2.69,3.39c0.72,0.92,1.43,1.86,2.13,2.81l16.93,28.21
				c0.49,1.04,0.97,2.08,1.44,3.12l0.49,1.08c0.4,0.9,0.78,1.81,1.16,2.7l0.84,2.05c0.47,1.16,0.97,2.42,1.44,3.68l1.47,4.02
				c0.42,1.22,0.83,2.44,1.23,3.67l2.44,8.23c0.31,1.15,0.61,2.32,0.9,3.49l2.93,14.69c0.18,1.18,0.35,2.37,0.51,3.54l0.72,6.36
				c0.51,5.33,0.77,10.78,0.77,16.21c0,8.11-0.58,16.27-1.72,24.27l-0.34,2.26c-0.12,0.76-0.24,1.53-0.37,2.29l-0.31,1.73
				c-0.24,1.33-0.49,2.65-0.77,3.98c-1.08,5.27-2.45,10.61-4.08,15.86c-0.42,1.35-0.84,2.66-1.28,3.97
				c-5.77,17.2-14.27,33.32-25.25,47.86c-1.33,1.76-2.65,3.45-3.96,5.05c-3.67,4.5-7.6,8.85-11.7,12.94l-203.11,203.13
				L1288.47,2093.46z"/>
			<path class="st0" d="M1611.78,1855.54c41.22,0,79.99,15.98,109.22,45.01l8.87,9.56c0.68,0.8,1.39,1.66,2.16,2.6
				c0.85,1.05,1.69,2.11,2.5,3.15c0.46,0.59,0.96,1.24,1.5,1.97l16.16,26.93c0.24,0.52,0.48,1.03,0.71,1.55l0.17,0.37
				c0.04,0.09,0.08,0.19,0.13,0.28l0.39,0.86c0.34,0.78,0.7,1.62,1.11,2.57l0.77,1.88c0.51,1.27,0.91,2.29,1.26,3.2l1.42,3.88
				c0.34,0.98,0.71,2.07,1.05,3.12l2.32,7.84c0.24,0.91,0.47,1.82,0.69,2.7l2.81,14.04c0.14,0.9,0.27,1.82,0.39,2.75l0.69,6.09
				c0.46,4.82,0.69,9.75,0.69,14.65c0,7.34-0.52,14.71-1.55,21.96l-0.35,2.33c-0.09,0.6-0.19,1.24-0.32,1.96l-0.3,1.67
				c-0.21,1.16-0.43,2.34-0.7,3.62c-0.98,4.78-2.22,9.63-3.71,14.4l-0.01,0.04l-0.01,0.04c-0.33,1.08-0.71,2.24-1.15,3.56
				c-5.27,15.69-13.01,30.36-23.03,43.64c-1.18,1.57-2.39,3.11-3.59,4.58c-3.34,4.09-6.93,8.06-10.67,11.81l-192.5,192.52
				l-219.2-219.2l192.49-192.52C1531.45,1871.66,1570.37,1855.54,1611.78,1855.54 M1611.78,1825.54
				c-47.35,0-94.69,18.06-130.82,54.19l-212.12,212.15l-21.21,21.21l261.64,261.62l21.21-21.22l212.12-212.14
				c4.52-4.52,8.75-9.21,12.7-14.05c1.48-1.81,2.92-3.65,4.32-5.51c12.16-16.11,21.33-33.74,27.51-52.16
				c0.47-1.41,0.93-2.83,1.37-4.26c1.77-5.7,3.26-11.47,4.45-17.29c0.3-1.46,0.58-2.91,0.84-4.37c0.01-0.01,0.01-0.02,0.01-0.03
				c0.26-1.45,0.51-2.91,0.73-4.36c0.01-0.01,0.01-0.02,0.01-0.03c1.49-9.53,2.23-19.14,2.23-28.76c0-5.93-0.28-11.86-0.85-17.77
				l-0.75-6.62c-0.19-1.45-0.4-2.91-0.63-4.36l-3.06-15.32c-0.35-1.43-0.72-2.87-1.1-4.29l-2.55-8.61
				c-0.46-1.42-0.94-2.83-1.42-4.23l-1.55-4.24c-0.52-1.4-1.07-2.79-1.63-4.17l-0.87-2.11c-0.58-1.37-1.17-2.75-1.79-4.12
				c0,0,0-0.01-0.01-0.02c-0.61-1.36-1.24-2.72-1.89-4.08l-17.67-29.45c-0.92-1.25-1.85-2.49-2.8-3.71
				c-0.96-1.23-1.93-2.45-2.91-3.66c-0.99-1.21-1.99-2.41-3.01-3.6l-9.69-10.45C1706.47,1843.6,1659.12,1825.54,1611.78,1825.54
				L1611.78,1825.54z M1490.1,2351.9l-219.5-219.5l17.8-17.8l219.5,219.5L1490.1,2351.9L1490.1,2351.9z"/>
		</g>
	</g>
	<g>
		<g>
			<path class="st0" d="M1166.33,2626.04c-45.41,0-88.1-17.68-120.21-49.79c-3.07-3.07-6.07-6.31-8.92-9.62
				c-0.93-1.08-1.86-2.2-2.78-3.32c-1.29-1.58-2.6-3.24-3.98-5.07c-0.65-0.87-1.3-1.75-1.94-2.64l-0.19-0.26
				c-0.29-0.38-0.56-0.76-0.83-1.16l-0.08-0.11c-1.01-1.42-2.03-2.9-3.1-4.52c-1.15-1.75-2.29-3.54-3.37-5.32
				c-6.49-10.68-11.78-22.08-15.74-33.88c-0.37-1.11-0.74-2.23-1.09-3.34c-0.55-1.75-1.04-3.4-1.48-5c-0.48-1.7-0.91-3.34-1.31-4.97
				c-0.47-1.9-0.83-3.45-1.13-4.87c-0.26-1.23-0.51-2.4-0.74-3.6c-0.42-2.16-0.79-4.27-1.1-6.35l-0.02-0.12
				c-0.18-1.14-0.34-2.28-0.5-3.42c-0.99-7.47-1.5-15.1-1.5-22.63c0-7.72,0.53-15.51,1.57-23.15c0.11-0.82,0.21-1.56,0.34-2.31
				l0.03-0.2c1.4-9.28,3.58-18.48,6.48-27.35l0.48-1.43l0.06-0.18c0.04-0.14,0.1-0.28,0.14-0.42l0.21-0.61
				c0.23-0.66,0.46-1.33,0.7-1.99c0.64-1.78,1.23-3.34,1.8-4.79c0.35-0.89,0.71-1.76,1.07-2.64c1-2.44,2.06-4.84,3.17-7.21
				c0.47-0.99,0.96-2.02,1.47-3.05c4.98-10.08,10.99-19.69,17.89-28.6c0.87-1.12,1.78-2.26,2.71-3.4c3.58-4.4,7.51-8.75,11.65-12.88
				l203.34-203.36l240.42,240.42l-203.33,203.35c-32.11,32.11-74.8,49.79-120.2,49.79
				C1166.34,2626.04,1166.34,2626.04,1166.33,2626.04z M1288.47,2093.46l203.1-203.12c32.11-32.11,74.8-49.79,120.21-49.79
				c45.31,0,87.92,17.61,120.01,49.59l9.29,10.02c0.88,1.03,1.75,2.07,2.61,3.12c0.9,1.1,1.78,2.21,2.65,3.33
				c0.73,0.95,1.46,1.89,2.16,2.85l16.95,28.25c0.37,0.77,0.73,1.55,1.08,2.33l0.94,2.09c0.36,0.82,0.71,1.64,1.05,2.46l0.85,2.06
				c0.47,1.15,0.94,2.35,1.44,3.68l1.48,4.05c0.42,1.21,0.83,2.42,1.22,3.64l2.44,8.23c0.31,1.16,0.61,2.32,0.9,3.49l2.93,14.69
				c0.18,1.18,0.35,2.37,0.51,3.55l0.72,6.37c0.52,5.3,0.78,10.75,0.78,16.21c0,7.97-0.57,16.02-1.69,23.95l-0.39,2.59
				c-0.09,0.62-0.19,1.21-0.28,1.78c0,0-0.47,2.62-0.5,2.82l-0.12,0.62c-0.17,0.92-0.35,1.84-0.54,2.76
				c-1.08,5.27-2.45,10.61-4.08,15.86c-0.42,1.35-0.84,2.66-1.28,3.97c-5.77,17.2-14.27,33.32-25.25,47.86
				c-1.33,1.76-2.66,3.46-3.96,5.05c-3.67,4.5-7.6,8.85-11.7,12.94l-203.11,203.13L1288.47,2093.46z"/>
			<path class="st0" d="M1611.78,1855.54c41.22,0,79.99,15.98,109.22,45.01l8.87,9.56c0.7,0.82,1.42,1.69,2.21,2.65
				c0.8,0.98,1.61,1.99,2.39,3c0.51,0.66,1.04,1.35,1.56,2.04l16.18,26.96c0.19,0.4,0.38,0.82,0.58,1.26l0.3,0.67
				c0.04,0.08,0.08,0.17,0.11,0.25l0.49,1.09c0.34,0.77,0.67,1.54,0.98,2.29l0.84,2.05c0.4,0.96,0.79,1.97,1.21,3.09l1.44,3.94
				c0.35,1.02,0.69,2.02,1.03,3.06l2.32,7.84c0.24,0.91,0.47,1.82,0.69,2.7l2.81,14.04c0.14,0.89,0.27,1.82,0.39,2.75l0.69,6.12
				c0.46,4.78,0.7,9.7,0.7,14.64c0,7.22-0.51,14.5-1.52,21.69l-0.4,2.62c-0.08,0.51-0.15,1-0.23,1.47l-0.38,2.13
				c-0.04,0.2-0.07,0.4-0.11,0.6l-0.14,0.77c-0.14,0.72-0.28,1.46-0.44,2.25c-0.98,4.78-2.23,9.63-3.71,14.4l-0.01,0.04l-0.01,0.04
				c-0.33,1.08-0.71,2.25-1.15,3.56c-5.27,15.69-13.01,30.36-23.03,43.64c-1.19,1.58-2.39,3.11-3.59,4.58
				c-3.34,4.09-6.93,8.06-10.67,11.81l-192.5,192.52l-219.2-219.2l192.49-192.52C1531.45,1871.66,1570.37,1855.54,1611.78,1855.54
				 M1249.46,2153.69l219.2,219.2l-192.73,192.75c-29.27,29.28-68.2,45.4-109.6,45.4c-41.4,0-80.33-16.12-109.6-45.39
				c-2.8-2.8-5.55-5.76-8.13-8.76c-0.81-0.94-1.65-1.94-2.56-3.06c-1.18-1.44-2.37-2.96-3.65-4.64c-0.48-0.64-1.01-1.36-1.7-2.33
				l-0.19-0.26l-0.19-0.25c-0.18-0.25-0.36-0.49-0.53-0.74l-0.08-0.11l-0.08-0.11c-0.91-1.28-1.83-2.63-2.8-4.09
				c-1.05-1.59-2.08-3.22-3.07-4.84c-5.91-9.73-10.73-20.12-14.35-30.88c-0.34-1-0.66-2-0.98-3.01c-0.51-1.63-0.95-3.11-1.33-4.52
				l-0.02-0.09l-0.03-0.09c-0.41-1.47-0.81-2.96-1.16-4.39c-0.43-1.76-0.76-3.17-1.03-4.43l-0.01-0.04l-0.01-0.04
				c-0.29-1.33-0.49-2.32-0.66-3.21l-0.01-0.07l-0.01-0.07c-0.37-1.88-0.7-3.78-0.98-5.64l-0.02-0.12l-0.02-0.12
				c-0.14-0.86-0.28-1.82-0.44-3.04c-0.91-6.84-1.37-13.79-1.37-20.64c0-7.04,0.48-14.15,1.43-21.12l0.01-0.07l0.01-0.07
				c0.09-0.66,0.17-1.24,0.26-1.76l0.03-0.2l0.03-0.2c1.27-8.43,3.25-16.79,5.88-24.84c0.13-0.39,0.26-0.79,0.39-1.17l0.11-0.33
				l0.07-0.22l0.06-0.18l0.06-0.18l0.16-0.47c0.2-0.58,0.41-1.17,0.62-1.76c0.58-1.61,1.11-3.03,1.64-4.35
				c0.32-0.8,0.64-1.59,0.97-2.39l0.02-0.05l0.02-0.05c0.89-2.15,1.84-4.32,2.84-6.46c0.43-0.91,0.89-1.87,1.37-2.84
				c4.52-9.15,9.99-17.9,16.27-26.01c0.82-1.04,1.65-2.1,2.49-3.13c3.29-4.03,6.87-7.99,10.64-11.77L1249.46,2153.69
				 M1611.78,1825.54c-47.35,0-94.69,18.06-130.82,54.19l-212.12,212.15l-21.21,21.21l-212.12,212.14
				c-4.51,4.51-8.75,9.2-12.7,14.05c-0.98,1.21-1.95,2.43-2.91,3.66c-7.62,9.84-14.11,20.27-19.47,31.12
				c-0.55,1.11-1.08,2.22-1.61,3.34c-1.21,2.58-2.36,5.19-3.44,7.81c-0.4,0.96-0.79,1.92-1.17,2.88c-0.69,1.74-1.34,3.48-1.97,5.23
				c-0.31,0.86-0.61,1.73-0.91,2.59c-0.12,0.35-0.24,0.69-0.35,1.04c-0.16,0.47-0.32,0.95-0.48,1.43
				c-3.19,9.75-5.54,19.71-7.06,29.77c-0.15,0.91-0.28,1.81-0.4,2.72c-1.14,8.35-1.71,16.77-1.71,25.18
				c0,8.24,0.55,16.48,1.64,24.66c0.17,1.25,0.35,2.51,0.55,3.76c0.35,2.31,0.75,4.61,1.2,6.91c0.25,1.31,0.52,2.6,0.8,3.9
				c0.38,1.79,0.8,3.57,1.24,5.36c0.44,1.78,0.91,3.56,1.41,5.34c0.51,1.86,1.06,3.71,1.64,5.56c0.38,1.2,0.77,2.4,1.17,3.59
				c4.28,12.75,10,25.13,17.14,36.89c1.19,1.96,2.42,3.9,3.69,5.82c1.1,1.66,2.22,3.3,3.38,4.93c0.37,0.53,0.74,1.05,1.13,1.57
				c0.71,0.99,1.43,1.98,2.17,2.96c1.41,1.86,2.85,3.7,4.33,5.51c0.99,1.21,1.99,2.41,3.01,3.6c3.07,3.57,6.3,7.06,9.69,10.45
				c36.12,36.12,83.47,54.18,130.81,54.18c47.35,0,94.69-18.06,130.82-54.19l212.12-212.14l21.21-21.22l212.12-212.14
				c4.52-4.52,8.75-9.21,12.7-14.05c1.48-1.81,2.92-3.65,4.32-5.51c12.16-16.11,21.33-33.74,27.51-52.16
				c0.47-1.41,0.93-2.83,1.37-4.26c1.77-5.7,3.26-11.47,4.45-17.29c0.3-1.46,0.58-2.91,0.84-4.37c0.01-0.01,0.01-0.02,0.01-0.03
				c0.27-1.45,0.51-2.9,0.73-4.36c0.01-0.01,0.01-0.02,0.01-0.03c1.49-9.52,2.24-19.13,2.24-28.75c0-5.94-0.28-11.87-0.86-17.78
				l-0.75-6.62c-0.19-1.45-0.4-2.91-0.63-4.36l-3.06-15.32c-0.35-1.43-0.72-2.87-1.1-4.29l-2.55-8.61
				c-0.46-1.42-0.93-2.82-1.42-4.23l-1.55-4.24c-0.52-1.4-1.06-2.79-1.63-4.17l-0.87-2.11c-0.57-1.37-1.17-2.75-1.79-4.12
				c0,0,0-0.01-0.01-0.02c-0.61-1.36-1.24-2.73-1.89-4.08l-17.67-29.45c-0.91-1.25-1.85-2.48-2.8-3.71
				c-0.95-1.23-1.92-2.45-2.91-3.66c-0.99-1.21-1.99-2.41-3.01-3.6l-9.69-10.45C1706.47,1843.6,1659.12,1825.54,1611.78,1825.54
				L1611.78,1825.54z M1490.1,2351.9l-219.5-219.5l17.8-17.8l219.5,219.5L1490.1,2351.9L1490.1,2351.9z"/>
		</g>
		<g>
			<path class="st0" d="M1166.33,2626.04c-45.41,0-88.1-17.68-120.21-49.79c-3.07-3.07-6.07-6.31-8.92-9.62
				c-0.93-1.08-1.86-2.2-2.78-3.32c-1.29-1.58-2.6-3.24-3.98-5.07c-0.65-0.86-1.3-1.75-1.94-2.64l-0.19-0.26
				c-0.29-0.38-0.56-0.77-0.83-1.16l-0.08-0.11c-1.01-1.42-2.03-2.9-3.1-4.52c-1.16-1.75-2.29-3.54-3.37-5.32
				c-6.49-10.68-11.78-22.08-15.74-33.88c-0.37-1.11-0.74-2.23-1.09-3.34c-0.55-1.75-1.04-3.4-1.48-5c-0.48-1.7-0.91-3.34-1.31-4.97
				c-0.47-1.9-0.83-3.46-1.13-4.87c-0.26-1.23-0.51-2.4-0.74-3.6c-0.42-2.16-0.79-4.27-1.1-6.35l-0.02-0.12
				c-0.18-1.14-0.34-2.28-0.5-3.41c-0.99-7.47-1.5-15.1-1.5-22.63c0-7.72,0.53-15.51,1.57-23.15c0.11-0.82,0.21-1.56,0.34-2.31
				l0.03-0.2c1.4-9.28,3.58-18.48,6.48-27.35l0.48-1.43l0.06-0.18c0.04-0.14,0.1-0.28,0.14-0.42l0.08-0.23
				c0.28-0.84,0.56-1.61,0.83-2.37c0.64-1.77,1.23-3.34,1.8-4.79c0.33-0.85,0.66-1.68,1.02-2.51l0.07-0.18
				c0.98-2.38,2.04-4.79,3.15-7.16c0.49-1.06,0.98-2.05,1.47-3.05c4.98-10.08,10.99-19.69,17.89-28.6c0.87-1.12,1.78-2.26,2.71-3.4
				c3.58-4.4,7.51-8.74,11.65-12.88l203.34-203.36l240.42,240.42l-203.33,203.35c-32.11,32.11-74.8,49.79-120.2,49.79
				C1166.34,2626.04,1166.34,2626.04,1166.33,2626.04z"/>
			<path class="st0" d="M1249.46,2153.69l219.2,219.2l-192.73,192.75c-29.27,29.28-68.2,45.4-109.6,45.4
				c-41.4,0-80.33-16.12-109.6-45.39c-2.8-2.8-5.55-5.76-8.13-8.76c-0.81-0.94-1.65-1.94-2.56-3.07c-1.17-1.43-2.35-2.93-3.61-4.6
				c-0.49-0.65-1.04-1.4-1.73-2.37l-0.19-0.26l-0.19-0.26c-0.18-0.25-0.36-0.49-0.53-0.74l-0.08-0.11l-0.08-0.11
				c-0.91-1.28-1.83-2.62-2.8-4.09c-1.05-1.59-2.08-3.22-3.07-4.84c-5.91-9.73-10.73-20.12-14.35-30.88
				c-0.34-1.01-0.67-2.03-0.99-3.04c-0.51-1.61-0.94-3.08-1.32-4.48l-0.02-0.09l-0.03-0.09c-0.41-1.47-0.81-2.96-1.16-4.39
				c-0.43-1.76-0.76-3.17-1.03-4.43l-0.01-0.04l-0.01-0.04c-0.29-1.33-0.49-2.32-0.66-3.21l-0.01-0.07l-0.01-0.07
				c-0.37-1.88-0.7-3.78-0.98-5.64l-0.02-0.12l-0.02-0.12c-0.14-0.85-0.28-1.8-0.44-3c-0.91-6.85-1.37-13.81-1.37-20.68
				c0-7.04,0.48-14.15,1.43-21.12l0.01-0.07l0.01-0.07c0.09-0.66,0.17-1.24,0.26-1.76l0.03-0.2l0.03-0.2
				c1.27-8.44,3.26-16.8,5.89-24.86c0.13-0.39,0.26-0.78,0.39-1.16l0.11-0.34l0.07-0.21l0.06-0.16l0.09-0.26l0.02-0.07l0.02-0.07
				c0.22-0.67,0.47-1.34,0.71-2.01c0.58-1.61,1.11-3.03,1.64-4.35c0.33-0.83,0.61-1.55,0.86-2.14l0.07-0.17l0.07-0.18
				c0.89-2.17,1.86-4.35,2.87-6.5l0.02-0.05l0.02-0.05c0.35-0.75,0.75-1.59,1.3-2.69c4.52-9.15,9.99-17.9,16.26-26
				c0.82-1.05,1.66-2.11,2.5-3.14c3.29-4.03,6.87-7.99,10.64-11.77L1249.46,2153.69 M1268.84,2091.88l-21.21,21.21l-212.12,212.14
				c-4.51,4.51-8.75,9.2-12.7,14.05c-0.98,1.21-1.95,2.43-2.91,3.66c-7.62,9.84-14.11,20.27-19.47,31.12
				c-0.55,1.11-1.09,2.22-1.61,3.34c-1.21,2.58-2.36,5.19-3.44,7.81c-0.41,0.96-0.79,1.92-1.17,2.88c-0.69,1.74-1.34,3.48-1.97,5.23
				c-0.31,0.86-0.62,1.73-0.91,2.59c-0.12,0.35-0.24,0.69-0.35,1.04c-0.16,0.47-0.32,0.95-0.48,1.43
				c-3.19,9.75-5.54,19.71-7.06,29.77c-0.15,0.91-0.28,1.81-0.4,2.72c-1.14,8.35-1.71,16.77-1.71,25.18
				c0,8.24,0.55,16.48,1.64,24.66c0.17,1.25,0.35,2.51,0.55,3.76c0.35,2.31,0.75,4.61,1.2,6.91c0.25,1.31,0.52,2.6,0.8,3.9
				c0.38,1.79,0.8,3.57,1.24,5.36c0.44,1.78,0.91,3.56,1.41,5.34c0.51,1.86,1.06,3.71,1.64,5.56c0.38,1.2,0.77,2.4,1.17,3.59
				c4.28,12.75,10,25.13,17.14,36.89c1.19,1.96,2.42,3.9,3.69,5.82c1.1,1.66,2.22,3.3,3.38,4.93c0.37,0.53,0.74,1.05,1.13,1.57
				c0.71,0.99,1.43,1.98,2.17,2.96c1.41,1.86,2.85,3.7,4.33,5.51c0.99,1.21,1.99,2.41,3.01,3.6c3.07,3.57,6.3,7.06,9.69,10.45
				c36.12,36.12,83.47,54.18,130.81,54.18c47.35,0,94.69-18.06,130.82-54.19l212.12-212.14l21.21-21.22L1268.84,2091.88
				L1268.84,2091.88z M1490.1,2351.9l-219.5-219.5l17.8-17.8l219.5,219.5L1490.1,2351.9L1490.1,2351.9z"/>
		</g>
	</g>
</g>
<g>
	<path class="st1" d="M260.98,680.18"/>
	<g>
		<path class="st0" d="M500,205c38.33,0,75.68,7.27,111.02,21.6c36.57,14.83,69.4,36.64,97.57,64.8c28.17,28.17,49.97,61,64.8,97.57
			C787.73,424.32,795,461.67,795,500s-7.27,75.68-21.6,111.02c-14.83,36.57-36.63,69.4-64.8,97.57c-28.17,28.17-61,49.97-97.57,64.8
			C575.68,787.73,538.33,795,500,795s-75.68-7.27-111.02-21.6c-36.57-14.83-69.4-36.63-97.57-64.8c-28.17-28.17-49.97-61-64.8-97.57
			C212.27,575.68,205,538.33,205,500c0-38.33,7.27-75.68,21.6-111.02c14.83-36.57,36.64-69.4,64.8-97.57
			c28.17-28.17,61-49.97,97.57-64.8C424.32,212.27,461.67,205,500,205 M500,175c-83.17,0-166.35,31.73-229.81,95.19
			c-126.92,126.92-126.92,332.7,0,459.62C333.65,793.27,416.83,825,500,825s166.35-31.73,229.81-95.19
			c126.92-126.92,126.92-332.7,0-459.62C666.35,206.73,583.17,175,500,175L500,175z"/>
	</g>
	<g>
		<path class="st0" d="M281.06,302.27l416.67,416.67c-25.63,23.21-54.74,41.5-86.7,54.46C575.68,787.73,538.33,795,500,795
			c-38.33,0-75.68-7.27-111.02-21.6c-36.57-14.83-69.4-36.63-97.57-64.8c-28.17-28.17-49.97-61-64.8-97.57
			C212.27,575.68,205,538.33,205,500s7.27-75.68,21.6-111.02C239.56,357.01,257.85,327.9,281.06,302.27 M281.04,259.83
			c-3.68,3.34-7.3,6.8-10.85,10.36c-126.92,126.92-126.92,332.7,0,459.62C333.65,793.27,416.82,825,500,825
			s166.35-31.73,229.81-95.19c3.56-3.56,7.01-7.17,10.36-10.85L281.04,259.83L281.04,259.83z"/>
	</g>
</g>
</svg>
